C:/Program Files/ffmpeg.exe -hide_banner -y -y -r 9 -start_number 0 -start_number_range 1 -i C:/NFTExport/7-Head/3-SparseHair/frame%04d.png -i C:/GameDev/Projects/SpaceShooter/Krita_Files/Boss/KritaTempPalettegen_%06d.png -lavfi [0:v][1:v]paletteuse=dither=sierra2_4a:diff_mode=none -f gif -loop 0 -gifflags +transdiff C:/GameDev/Projects/SpaceShooter/Krita_Files/Boss/lightning.gif
=====================================================
Input #0, image2, from 'C:/NFTExport/7-Head/3-SparseHair/frame%04d.png':
  Duration: 00:00:00.28, start: 0.000000, bitrate: N/A
    Stream #0:0: Video: png, rgba(pc), 600x500 [SAR 3779:3779 DAR 6:5], 25 fps, 25 tbr, 25 tbn, 25 tbc
Input #1, image2, from 'C:/GameDev/Projects/SpaceShooter/Krita_Files/Boss/KritaTempPalettegen_%06d.png':
  Duration: 00:00:00.04, start: 0.000000, bitrate: N/A
    Stream #1:0: Video: png, rgba(pc), 16x16 [SAR 1:1 DAR 1:1], 25 tbr, 25 tbn, 25 tbc
Stream mapping:
  Stream #0:0 (png) -> paletteuse:default
  Stream #1:0 (png) -> paletteuse:palette
  paletteuse -> Stream #0:0 (gif)
Press [q] to stop, [?] for help
Output #0, gif, to 'C:/GameDev/Projects/SpaceShooter/Krita_Files/Boss/lightning.gif':
  Metadata:
    encoder         : Lavf58.51.101
    Stream #0:0: Video: gif, pal8, 600x500 [SAR 1:1 DAR 6:5], q=2-31, 200 kb/s, 9 fps, 100 tbn, 9 tbc (default)
    Metadata:
      encoder         : Lavc58.101.101 gif
frame=    7 fps=0.0 q=-0.0 Lsize=      17kB time=00:00:00.68 bitrate= 207.6kbits/s speed=  13x    
video:17kB audio:0kB subtitle:0kB other streams:0kB global headers:0kB muxing overhead: 0.113449%
